HIERARCHY
ROOT Hips
{
 OFFSET 0.000000 0.000000 0.000000
 CHANNELS 6 Xposition Yposition Zposition Yrotation Xrotation Zrotation
 JOINT Chest
 {
  OFFSET 0.000000 10.383400 0.001500
  CHANNELS 3 Yrotation Xrotation Zrotation
  JOINT Chest2
  {
   OFFSET 0.000000 10.418200 -0.003100
   CHANNELS 3 Yrotation Xrotation Zrotation
   JOINT Chest3
   {
    OFFSET 0.000000 10.375100 0.000000
    CHANNELS 3 Yrotation Xrotation Zrotation
    JOINT Chest4
    {
     OFFSET 0.000000 10.364600 0.000000
     CHANNELS 3 Yrotation Xrotation Zrotation
     JOINT Neck
     {
      OFFSET 0.000000 15.642200 0.000000
      CHANNELS 3 Yrotation Xrotation Zrotation
      JOINT Head
      {
       OFFSET 0.000000 9.697300 -0.006500
       CHANNELS 3 Yrotation Xrotation Zrotation
       End Site
       {
        OFFSET 0.000000 18.492200 -0.003400
       }
      }
     }
     JOINT RightCollar
     {
      OFFSET -3.166800 10.349300 0.000000
      CHANNELS 3 Yrotation Xrotation Zrotation
      JOINT RightShoulder
      {
       OFFSET -14.729700 0.000000 0.000000
       CHANNELS 3 Yrotation Xrotation Zrotation
       JOINT RightElbow
       {
        OFFSET 0.000000 -32.224300 0.000000
        CHANNELS 3 Yrotation Xrotation Zrotation
        JOINT RightWrist
        {
         OFFSET 0.000000 -26.084100 0.000000
         CHANNELS 3 Yrotation Xrotation Zrotation
         End Site
         {
          OFFSET 0.000000 -19.319400 0.000000
         }
        }
       }
      }
     }
     JOINT LeftCollar
     {
      OFFSET 3.166800 10.349300 0.000000
      CHANNELS 3 Yrotation Xrotation Zrotation
      JOINT LeftShoulder
      {
       OFFSET 14.729700 0.000000 0.000000
       CHANNELS 3 Yrotation Xrotation Zrotation
       JOINT LeftElbow
       {
        OFFSET 0.000000 -32.224300 0.000000
        CHANNELS 3 Yrotation Xrotation Zrotation
        JOINT LeftWrist
        {
         OFFSET 0.000000 -26.084100 0.000000
         CHANNELS 3 Yrotation Xrotation Zrotation
         End Site
         {
          OFFSET 0.000000 -19.319400 0.000000
         }
        }
       }
      }
     }
    }
   }
  }
 }
 JOINT RightHip
 {
  OFFSET -8.428900 -0.007500 -0.000800
  CHANNELS 3 Yrotation Xrotation Zrotation
  JOINT RightKnee
  {
   OFFSET 0.000000 -43.834600 0.000700
   CHANNELS 3 Yrotation Xrotation Zrotation
   JOINT RightAnkle
   {
    OFFSET 0.000000 -42.757000 0.001200
    CHANNELS 3 Yrotation Xrotation Zrotation
    JOINT RightToe
    {
     OFFSET 0.000000 -6.946900 15.649300
     CHANNELS 3 Yrotation Xrotation Zrotation
     End Site
     {
      OFFSET 0.000000 -1.580800 6.825800
     }
    }
   }
  }
 }
 JOINT LeftHip
 {
  OFFSET 8.428900 -0.007500 -0.000800
  CHANNELS 3 Yrotation Xrotation Zrotation
  JOINT LeftKnee
  {
   OFFSET 0.000000 -43.834600 0.000700
   CHANNELS 3 Yrotation Xrotation Zrotation
   JOINT LeftAnkle
   {
    OFFSET 0.000000 -42.757000 0.001200
    CHANNELS 3 Yrotation Xrotation Zrotation
    JOINT LeftToe
    {
     OFFSET 0.000000 -6.946900 15.649300
     CHANNELS 3 Yrotation Xrotation Zrotation
     End Site
     {
      OFFSET 0.000000 -1.580800 6.825800
     }
    }
   }
  }
 }
}
MOTION
Frames: 5
Frame Time: 0.008333
0.000000 93.354300 0.000000 0.000000 -5.767877 0.000000 0.000000 11.653817 0.000000 0.000000 -5.885947 0.000000 0.000000 -0.000000 0.000000 0.000000 -0.000000 0.000000 0.000000 12.528835 0.000000 0.000000 0.711642 0.000000 0.000000 -0.000000 0.000000 0.000000 0.000000 -90.000000 0.000000 -2.309062 0.000000 0.000000 2.309062 0.000000 0.000000 -0.000000 0.000000 0.000000 -0.000000 90.000000 0.000000 -2.309062 0.000000 0.000000 2.309062 0.000000 0.000000 8.520406 0.000000 0.000000 1.905762 0.000000 -0.000000 -4.658285 0.000000 0.000000 -0.000000 0.000000 0.000000 8.520406 0.000000 0.000000 1.905762 0.000000 -0.000000 -4.658285 0.000000 0.000000 -0.000000 0.000000
129.317350 127.042133 6.960834 -14.279559 -30.518849 -1.881693 -1.110977 17.988145 2.129092 -0.157258 2.008032 0.252484 -0.254859 3.327850 0.416395 -1.005414 15.700478 1.874494 2.222983 14.373914 -1.186150 4.614870 -9.021450 -3.073698 -1.455332 -4.239300 -2.293450 5.914986 -13.858489 -4.670061 27.055893 -45.512668 -8.921387 8.254825 7.867513 -15.044100 -2.734387 -6.241897 -4.651821 -2.382770 -6.433474 3.281407 -39.997797 -53.154311 21.082831 -28.664927 6.862353 13.060584 -1.772249 -39.536091 -1.496746 -25.371523 75.097117 -24.650056 1.242988 -2.907773 5.839427 0.000324 -0.007424 0.000144 -5.213973 -32.218131 -8.200814 -1.134472 67.768465 1.791343 -13.325367 -2.690881 -2.428926 -0.001865 0.001488 -0.000828
129.317474 127.042067 6.960324 -14.278857 -30.518816 -1.881891 -1.108761 17.987535 2.132371 -0.159592 2.008208 0.250555 -0.254099 3.327780 0.417151 -1.004247 15.700804 1.874753 2.227609 14.375819 -1.187074 4.613685 -9.022390 -3.075550 -1.457753 -4.239198 -2.293535 5.912075 -13.856693 -4.666550 27.063715 -45.511674 -8.932545 8.253365 7.865703 -15.038949 -2.728275 -6.243085 -4.648903 -2.384867 -6.430767 3.274509 -40.006271 -53.155418 21.087642 -28.653919 6.861853 13.067410 -1.771134 -39.536930 -1.499349 -25.367852 75.097915 -24.646980 1.244054 -2.907325 5.841943 -0.000786 -0.007347 -0.000349 -5.211068 -32.218429 -8.208106 -1.127333 67.769516 1.801247 -13.291424 -2.693625 -2.435960 -0.000676 0.000511 -0.000300
129.317556 127.042154 6.960112 -14.279283 -30.520836 -1.881240 -1.104576 17.989234 2.136253 -0.159743 2.007658 0.249462 -0.253690 3.328803 0.417280 -0.996649 15.706340 1.879009 2.222441 14.371084 -1.190165 4.619260 -9.022664 -3.078640 -1.470836 -4.244199 -2.294535 5.913845 -13.858106 -4.664269 27.062710 -45.505533 -8.934895 8.254374 7.861515 -15.038238 -2.733929 -6.249407 -4.647786 -2.381741 -6.430359 3.266579 -40.016095 -53.157004 21.093088 -28.649118 6.862323 13.067512 -1.768436 -39.535884 -1.499427 -25.374407 75.092561 -24.656608 1.245895 -2.902593 5.846305 -0.001156 -0.008472 -0.000513 -5.203863 -32.215925 -8.215640 -1.136455 67.771190 1.792422 -13.245060 -2.696747 -2.434297 0.001315 -0.000201 0.000584
129.318646 127.042233 6.960180 -14.273652 -30.522525 -1.877974 -1.107601 17.991092 2.132901 -0.159665 2.009223 0.252485 -0.253706 3.329570 0.417292 -0.998339 15.704804 1.875995 2.224785 14.369702 -1.191870 4.631402 -9.026184 -3.086835 -1.471722 -4.244973 -2.291454 5.914079 -13.857475 -4.667455 27.051042 -45.501528 -8.936004 8.260378 7.854936 -15.033472 -2.733673 -6.251201 -4.648102 -2.380987 -6.429505 3.263271 -40.011573 -53.157396 21.096053 -28.646402 6.855450 13.066433 -1.768614 -39.534012 -1.508008 -25.370790 75.091848 -24.653894 1.245674 -2.904754 5.845241 0.000681 -0.007925 0.000302 -5.198142 -32.213745 -8.226186 -1.149662 67.767756 1.781257 -13.231509 -2.695057 -2.431743 0.001183 -0.000533 0.000525
